<svg width="33" height="34" viewBox="0 0 33 34" fill="none" xmlns="http://www.w3.org/2000/svg">
<path d="M6.24918 10.5662V15.132C6.24918 15.8857 6.28904 16.3568 6.36876 16.5452C6.45573 16.7337 6.61879 16.9004 6.85795 17.0453C7.10436 17.183 7.43411 17.2519 7.84721 17.2519H8.3364V17.6541H0.628906V17.2519H1.1181C1.54569 17.2519 1.88994 17.1758 2.15084 17.0236C2.33927 16.9221 2.48421 16.7482 2.58568 16.5018C2.6654 16.3278 2.70526 15.8712 2.70526 15.132V5.43514C2.70526 4.68143 2.6654 4.21035 2.58568 4.02192C2.50596 3.83349 2.34289 3.67043 2.09648 3.53273C1.85732 3.38778 1.53119 3.31531 1.1181 3.31531H0.628906V2.91309H8.3364V3.31531H7.84721C7.41962 3.31531 7.07537 3.39141 6.81447 3.5436C6.62604 3.64506 6.47747 3.819 6.36876 4.06541C6.28904 4.23934 6.24918 4.69592 6.24918 5.43514V9.60958H11.4564V5.43514C11.4564 4.68143 11.4165 4.21035 11.3368 4.02192C11.2571 3.83349 11.094 3.67043 10.8476 3.53273C10.6012 3.38778 10.2714 3.31531 9.85833 3.31531H9.38001V2.91309H17.0766V3.31531H16.5983C16.1635 3.31531 15.8192 3.39141 15.5656 3.5436C15.3771 3.64506 15.2286 3.819 15.1199 4.06541C15.0401 4.23934 15.0003 4.69592 15.0003 5.43514V15.132C15.0003 15.8857 15.0401 16.3568 15.1199 16.5452C15.1996 16.7337 15.3627 16.9004 15.6091 17.0453C15.8555 17.183 16.1852 17.2519 16.5983 17.2519H17.0766V17.6541H9.38001V17.2519H9.85833C10.2932 17.2519 10.6374 17.1758 10.8911 17.0236C11.0795 16.9221 11.2281 16.7482 11.3368 16.5018C11.4165 16.3278 11.4564 15.8712 11.4564 15.132V10.5662H6.24918Z" fill="white"/>
<path d="M23.3074 2.64504C25.6555 2.55808 27.5615 3.24295 29.0255 4.69965C30.4967 6.15636 31.2323 7.97905 31.2323 10.1677C31.2323 12.0375 30.6851 13.6827 29.5908 15.1031C28.1413 16.9874 26.0939 17.9296 23.4487 17.9296C20.7962 17.9296 18.7452 17.0309 17.2957 15.2336C16.1507 13.8131 15.5781 12.1281 15.5781 10.1786C15.5781 7.98992 16.321 6.16723 17.8067 4.71052C19.2996 3.24657 21.1332 2.55808 23.3074 2.64504ZM23.4378 3.34078C22.0898 3.34078 21.0643 4.02928 20.3613 5.40626C19.7888 6.53684 19.5025 8.16023 19.5025 10.2764C19.5025 12.7913 19.9446 14.6502 20.8288 15.8532C21.4448 16.6939 22.3072 17.1143 23.4161 17.1143C24.1625 17.1143 24.7858 16.9331 25.2859 16.5707C25.9236 16.1069 26.4201 15.3677 26.7752 14.353C27.1303 13.3312 27.3079 12.0013 27.3079 10.3634C27.3079 8.41389 27.1267 6.95718 26.7643 5.99329C26.402 5.02216 25.9381 4.33729 25.3728 3.93869C24.8148 3.54009 24.1698 3.34078 23.4378 3.34078Z" fill="white"/>
<path d="M10.0007 27.077L13.6892 18.1162H19.2221V18.4871H18.7811C18.3801 18.4871 18.0594 18.5572 17.8188 18.6976C17.6518 18.7911 17.5181 18.9481 17.4179 19.1687C17.3444 19.329 17.3077 19.7467 17.3077 20.4216V29.3824C17.3077 30.0773 17.3444 30.5117 17.4179 30.6854C17.4914 30.8591 17.6418 31.0128 17.869 31.1465C18.0962 31.2734 18.4002 31.3369 18.7811 31.3369H19.2221V31.7078H12.1256V31.3369H12.5666C12.9676 31.3369 13.2883 31.2668 13.5289 31.1264C13.6959 31.0329 13.8296 30.8725 13.9298 30.6453C14.0033 30.4849 14.0401 30.064 14.0401 29.3824V19.309L8.82795 31.7078H8.5874L3.2951 19.3992V28.9714C3.2951 29.6396 3.31181 30.0506 3.34522 30.2043C3.43209 30.5384 3.61919 30.8124 3.90652 31.0262C4.20054 31.2334 4.65827 31.3369 5.27971 31.3369V31.7078H0.628906V31.3369H0.769232C1.06993 31.3436 1.35058 31.2968 1.61119 31.1966C1.87179 31.0897 2.06892 30.9494 2.20256 30.7756C2.33621 30.6019 2.43978 30.358 2.51328 30.0439C2.52665 29.9704 2.53333 29.6296 2.53333 29.0215V20.4216C2.53333 19.7333 2.49658 19.3056 2.42307 19.1386C2.34957 18.9648 2.19922 18.8145 1.97203 18.6875C1.74483 18.5539 1.44079 18.4871 1.05991 18.4871H0.628906V18.1162H6.18181L10.0007 27.077Z" fill="white"/>
<path d="M25.196 18.898V24.4309H25.4666C26.3286 24.4309 26.9534 24.1603 27.341 23.619C27.7285 23.0777 27.9758 22.2792 28.0827 21.2234H28.4636V28.34H28.0827C28.0025 27.5648 27.8321 26.93 27.5715 26.4355C27.3176 25.9411 27.0202 25.6103 26.6794 25.4432C26.3386 25.2695 25.8442 25.1826 25.196 25.1826V29.0115C25.196 29.7599 25.226 30.2177 25.2862 30.3847C25.353 30.5518 25.4733 30.6888 25.647 30.7957C25.8208 30.9026 26.1014 30.956 26.489 30.956H27.3009C28.5705 30.956 29.5862 30.662 30.3479 30.074C31.1164 29.486 31.6677 28.5905 32.0018 27.3878H32.3727L31.7612 31.7078H20.0139V31.3369H20.465C20.8592 31.3369 21.1766 31.2668 21.4172 31.1264C21.5909 31.0329 21.7246 30.8725 21.8181 30.6453C21.8916 30.4849 21.9284 30.064 21.9284 29.3824V20.4416C21.9284 19.8269 21.9117 19.4493 21.8783 19.309C21.8114 19.0751 21.6878 18.8947 21.5074 18.7677C21.2535 18.5806 20.906 18.4871 20.465 18.4871H20.0139V18.1162H31.3904V22.1355H31.0095C30.8157 21.1533 30.5417 20.4483 30.1876 20.0206C29.8401 19.593 29.3456 19.2789 28.7041 19.0784C28.3299 18.9582 27.6283 18.898 26.5992 18.898H25.196Z" fill="white"/>
</svg>
